#N canvas -8 -8 1280 942 10;
#X obj 1161 60 hsl 128 15 0 1 0 0 empty empty empty -2 -8 0 10 -262144
-1 -1 12700 1;
#X obj 1158 152 line~;
#X obj 1155 199 *~;
#X obj 1214 154 tgl 15 0 empty empty empty 17 7 0 10 -262144 -1 -1
1 1;
#X msg 1163 107 \$1 25;
#X obj 32 161 osc~;
#X obj 182 276 *~;
#X obj 186 165 osc~;
#X obj 347 221 *~;
#X obj 502 227 *~;
#X obj 502 162 osc~;
#X obj 661 226 *~;
#X obj 661 161 osc~;
#X obj 806 225 *~;
#X obj 806 160 osc~;
#X obj 950 224 *~;
#X obj 950 159 osc~;
#X obj 1097 225 *~;
#X obj 1097 160 osc~;
#X obj 488 -94 hsl 128 15 110 440 0 0 fundamental empty empty -2 -8
0 10 -262144 -1 -1 2700 1;
#X obj 343 169 osc~;
#X floatatom 503 -56 5 0 0 0 - - -;
#X obj 29 364 *~;
#X obj 508 539 dac~;
#X obj 183 107 * 2;
#X obj 339 109 * 3;
#X obj 500 112 * 4;
#X obj 664 115 * 5;
#X obj 804 114 * 6;
#X obj 948 119 * 7;
#X obj 1099 117 * 8;
#X obj 1015 -82 hsl 128 15 0 1 0 0 empty empty empty -2 -8 0 10 -262144
-1 -1 12700 1;
#X obj 1012 10 line~;
#X obj 1009 57 *~;
#X obj 1068 12 tgl 15 0 empty empty empty 17 7 0 10 -262144 -1 -1 1
1;
#X msg 1017 -35 \$1 25;
#X obj 855 -46 hsl 128 15 0 1 0 0 empty empty empty -2 -8 0 10 -262144
-1 -1 12700 1;
#X obj 852 46 line~;
#X obj 849 93 *~;
#X obj 908 48 tgl 15 0 empty empty empty 17 7 0 10 -262144 -1 -1 1
1;
#X msg 857 1 \$1 25;
#X obj 718 -29 hsl 128 15 0 1 0 0 empty empty empty -2 -8 0 10 -262144
-1 -1 12700 1;
#X obj 715 63 line~;
#X obj 712 110 *~;
#X obj 771 65 tgl 15 0 empty empty empty 17 7 0 10 -262144 -1 -1 1
1;
#X msg 720 18 \$1 25;
#X obj 560 24 hsl 128 15 0 1 0 0 empty empty empty -2 -8 0 10 -262144
-1 -1 12700 1;
#X obj 557 116 line~;
#X obj 554 163 *~;
#X obj 613 118 tgl 15 0 empty empty empty 17 7 0 10 -262144 -1 -1 1
1;
#X msg 562 71 \$1 25;
#X obj 405 70 hsl 128 15 0 1 0 0 empty empty empty -2 -8 0 10 -262144
-1 -1 12700 1;
#X obj 402 162 line~;
#X obj 399 209 *~;
#X obj 458 164 tgl 15 0 empty empty empty 17 7 0 10 -262144 -1 -1 1
1;
#X msg 407 117 \$1 25;
#X obj 241 80 hsl 128 15 0 1 0 0 empty empty empty -2 -8 0 10 -262144
-1 -1 12700 1;
#X obj 238 172 line~;
#X obj 235 219 *~;
#X obj 294 174 tgl 15 0 empty empty empty 17 7 0 10 -262144 -1 -1 1
1;
#X msg 243 127 \$1 25;
#X obj 54 195 hsl 128 15 0 1 0 0 empty empty empty -2 -8 0 10 -262144
-1 -1 12700 1;
#X obj 60 289 line~;
#X obj 75 339 *~;
#X obj 122 294 tgl 15 0 empty empty empty 17 7 0 10 -262144 -1 -1 1
1;
#X msg 62 247 \$1 25;
#X obj 115 107 * 1;
#X obj 581 532 hsl 128 15 0 1 0 0 empty empty empty -2 -8 0 10 -262144
-1 -1 1600 1;
#X obj 505 487 *~;
#X obj 17 -174 vsl 15 128 0 1 0 0 empty empty empty 0 -9 0 10 -262144
-1 -1 12700 1;
#X obj 71 -175 vsl 15 128 0 1000 0 0 empty empty empty 0 -9 0 10 -262144
-1 -1 12700 1;
#X obj 17 -1 pack f f;
#X msg 18 40 \$1 \$2;
#X msg 70 40 0 \$1;
#X obj 136 -162 vsl 15 128 0 1000 0 0 empty empty empty 0 -9 0 10 -262144
-1 -1 12700 1;
#X obj 24 88 line~;
#X obj 43 -83 bng 15 250 50 0 empty empty empty 17 7 0 10 -262144 -1
-1;
#X obj 111 -15 bng 15 250 50 0 empty empty empty 17 7 0 10 -262144
-1 -1;
#X obj 30 315 *~;
#X obj 55 -28 float;
#X obj 16 -29 float;
#X obj 117 25 float;
#X obj 200 -254 vsl 15 128 0 1 0 0 empty empty empty 0 -9 0 10 -262144
-1 -1 12700 1;
#X obj 254 -255 vsl 15 128 0 1000 0 0 empty empty empty 0 -9 0 10 -262144
-1 -1 12700 1;
#X obj 200 -81 pack f f;
#X msg 201 -40 \$1 \$2;
#X msg 253 -40 0 \$1;
#X obj 319 -242 vsl 15 128 0 1000 0 0 empty empty empty 0 -9 0 10 -262144
-1 -1 12700 1;
#X obj 207 8 line~;
#X obj 226 -163 bng 15 250 50 0 empty empty empty 17 7 0 10 -262144
-1 -1;
#X obj 294 -95 bng 15 250 50 0 empty empty empty 17 7 0 10 -262144
-1 -1;
#X obj 238 -108 float;
#X obj 199 -109 float;
#X obj 300 -55 float;
#X obj 372 -318 vsl 15 128 0 1 0 0 empty empty empty 0 -9 0 10 -262144
-1 -1 12700 1;
#X obj 426 -319 vsl 15 128 0 1000 0 0 empty empty empty 0 -9 0 10 -262144
-1 -1 12700 1;
#X obj 372 -145 pack f f;
#X msg 373 -104 \$1 \$2;
#X msg 425 -104 0 \$1;
#X obj 491 -306 vsl 15 128 0 1000 0 0 empty empty empty 0 -9 0 10 -262144
-1 -1 12700 1;
#X obj 379 -56 line~;
#X obj 398 -227 bng 15 250 50 0 empty empty empty 17 7 0 10 -262144
-1 -1;
#X obj 466 -159 bng 15 250 50 0 empty empty empty 17 7 0 10 -262144
-1 -1;
#X obj 410 -172 float;
#X obj 371 -173 float;
#X obj 472 -119 float;
#X obj 539 -389 vsl 15 128 0 1 0 0 empty empty empty 0 -9 0 10 -262144
-1 -1 12700 1;
#X obj 593 -390 vsl 15 128 0 1000 0 0 empty empty empty 0 -9 0 10 -262144
-1 -1 12700 1;
#X obj 539 -216 pack f f;
#X msg 540 -175 \$1 \$2;
#X msg 592 -175 0 \$1;
#X obj 658 -377 vsl 15 128 0 1000 0 0 empty empty empty 0 -9 0 10 -262144
-1 -1 12700 1;
#X obj 546 -127 line~;
#X obj 565 -298 bng 15 250 50 0 empty empty empty 17 7 0 10 -262144
-1 -1;
#X obj 633 -230 bng 15 250 50 0 empty empty empty 17 7 0 10 -262144
-1 -1;
#X obj 577 -243 float;
#X obj 538 -244 float;
#X obj 639 -190 float;
#X obj 706 -369 vsl 15 128 0 1 0 0 empty empty empty 0 -9 0 10 -262144
-1 -1 12700 1;
#X obj 760 -370 vsl 15 128 0 1000 0 0 empty empty empty 0 -9 0 10 -262144
-1 -1 12700 1;
#X obj 706 -196 pack f f;
#X msg 707 -155 \$1 \$2;
#X msg 759 -155 0 \$1;
#X obj 825 -357 vsl 15 128 0 1000 0 0 empty empty empty 0 -9 0 10 -262144
-1 -1 12700 1;
#X obj 713 -107 line~;
#X obj 732 -278 bng 15 250 50 0 empty empty empty 17 7 0 10 -262144
-1 -1;
#X obj 800 -210 bng 15 250 50 0 empty empty empty 17 7 0 10 -262144
-1 -1;
#X obj 744 -223 float;
#X obj 705 -224 float;
#X obj 806 -170 float;
#X obj 873 -372 vsl 15 128 0 1 0 0 empty empty empty 0 -9 0 10 -262144
-1 -1 12700 1;
#X obj 927 -373 vsl 15 128 0 1000 0 0 empty empty empty 0 -9 0 10 -262144
-1 -1 12700 1;
#X obj 873 -199 pack f f;
#X msg 874 -158 \$1 \$2;
#X msg 926 -158 0 \$1;
#X obj 992 -360 vsl 15 128 0 1000 0 0 empty empty empty 0 -9 0 10 -262144
-1 -1 12700 1;
#X obj 880 -110 line~;
#X obj 899 -281 bng 15 250 50 0 empty empty empty 17 7 0 10 -262144
-1 -1;
#X obj 967 -213 bng 15 250 50 0 empty empty empty 17 7 0 10 -262144
-1 -1;
#X obj 911 -226 float;
#X obj 872 -227 float;
#X obj 973 -173 float;
#X obj 1036 -374 vsl 15 128 0 1 0 0 empty empty empty 0 -9 0 10 -262144
-1 -1 12700 1;
#X obj 1090 -375 vsl 15 128 0 1000 0 0 empty empty empty 0 -9 0 10
-262144 -1 -1 12700 1;
#X obj 1036 -201 pack f f;
#X msg 1037 -160 \$1 \$2;
#X msg 1089 -160 0 \$1;
#X obj 1155 -362 vsl 15 128 0 1000 0 0 empty empty empty 0 -9 0 10
-262144 -1 -1 12700 1;
#X obj 1043 -112 line~;
#X obj 1062 -283 bng 15 250 50 0 empty empty empty 17 7 0 10 -262144
-1 -1;
#X obj 1130 -215 bng 15 250 50 0 empty empty empty 17 7 0 10 -262144
-1 -1;
#X obj 1074 -228 float;
#X obj 1035 -229 float;
#X obj 1136 -175 float;
#X obj 1186 -362 vsl 15 128 0 1 0 0 empty empty empty 0 -9 0 10 -262144
-1 -1 12700 1;
#X obj 1240 -363 vsl 15 128 0 1000 0 0 empty empty empty 0 -9 0 10
-262144 -1 -1 12700 1;
#X obj 1186 -189 pack f f;
#X msg 1187 -148 \$1 \$2;
#X msg 1239 -148 0 \$1;
#X obj 1305 -350 vsl 15 128 0 1000 0 0 empty empty empty 0 -9 0 10
-262144 -1 -1 12700 1;
#X obj 1193 -100 line~;
#X obj 1212 -271 bng 15 250 50 0 empty empty empty 17 7 0 10 -262144
-1 -1;
#X obj 1280 -203 bng 15 250 50 0 empty empty empty 17 7 0 10 -262144
-1 -1;
#X obj 1224 -216 float;
#X obj 1185 -217 float;
#X obj 1286 -163 float;
#X obj 181 231 *~;
#X obj 344 196 *~;
#X obj 497 192 *~;
#X obj 659 192 *~;
#X obj 807 192 *~;
#X obj 945 191 *~;
#X obj 1091 193 *~;
#X obj 328 501 tabwrite~ additive;
#X obj 206 465 tgl 15 0 empty empty empty 17 7 0 10 -262144 -1 -1 1
1;
#X obj 204 489 metro 100;
#N canvas 0 0 450 300 (subpatch) 0;
#X array additive 100 float 3;
#A 0 0.272405 0.284264 0.290834 0.291831 0.287164 0.276955 0.261495
0.241237 0.216782 0.188838 0.158186 0.125668 0.0921258 0.0583969 0.0252583
-0.00657031 -0.0364726 -0.0639308 -0.0885541 -0.110057 -0.128295 -0.143214
-0.154882 -0.163434 -0.169088 -0.172107 -0.172771 -0.171391 -0.16825
-0.163611 -0.157711 -0.150728 -0.142792 -0.133995 -0.124375 -0.113931
-0.10264 -0.0904618 -0.0773625 -0.0633315 -0.0483729 -0.0325657 -0.0160199
0.00106194 0.0184275 0.0357327 0.0525751 0.0685009 0.0829954 0.0955322
0.105565 0.112571 0.116068 0.115641 0.11096 0.101814 0.0881015 0.0698858
0.0473693 0.0209092 -0.00900149 -0.0417124 -0.0764742 -0.112422 -0.148649
-0.184178 -0.218062 -0.24938 -0.277275 -0.301015 -0.319991 -0.333777
-0.342128 -0.345007 -0.342579 -0.335218 -0.323499 -0.308177 -0.290134
-0.270399 -0.25005 -0.230205 -0.211965 -0.196364 -0.184321 -0.176604
-0.173773 -0.176185 -0.183924 -0.196812 -0.214425 -0.236054 -0.260754
-0.287377 -0.314594 -0.340947 -0.364903 -0.384919 -0.399499 -0.407239
;
#X coords 0 1 99 -1 200 140 1 0 0;
#X restore 867 393 graph;
#X text 550 -108 fundamental freq;
#X text 60 181 osc 1 amplitude;
#X text 246 66 osc 2 amplitude;
#X text 413 55 osc 3 amplitude;
#X text 555 9 osc 4 amplitude;
#X text 716 -46 osc 5 amplitude;
#X text 857 -63 osc 6 amplitude;
#X text 1010 -96 osc 7 amplitude;
#X text 1158 44 osc 8 amplitude;
#X text 202 -281 osc 2 AR;
#X text 13 -199 osc 1 AR;
#X text 376 -342 osc 3 AR;
#X text 542 -405 osc 4 AR;
#X text 720 -391 osc 5 AR;
#X text 879 -392 osc 6 AR;
#X text 1037 -397 osc 7 AR;
#X text 1190 -390 osc 8 AR;
#X text 33 -108 ATK;
#X text 107 -39 REL;
#X text 224 -181 ATK;
#X text 286 -116 REL;
#X text 395 -246 ATK;
#X text 465 -181 REL;
#X text 559 -317 ATK;
#X text 630 -250 REL;
#X text 731 -295 ATK;
#X text 797 -229 REL;
#X text 896 -300 ATK;
#X text 967 -235 REL;
#X text 1058 -300 ATK;
#X text 1129 -233 REL;
#X text 1209 -288 ATK;
#X text 1275 -224 REL;
#N canvas 585 407 450 300 interface 1;
#X obj 38 23 hsl 128 15 0 127 0 0 empty fundamental empty -2 -8 0 10
-262144 -1 -1 12700 1;
#X restore 153 -386 pd interface;
#X connect 0 0 4 0;
#X connect 1 0 2 0;
#X connect 2 0 17 1;
#X connect 3 0 2 1;
#X connect 4 0 1 0;
#X connect 5 0 78 0;
#X connect 6 0 68 0;
#X connect 7 0 166 0;
#X connect 8 0 68 0;
#X connect 9 0 68 0;
#X connect 10 0 168 0;
#X connect 11 0 68 0;
#X connect 12 0 169 0;
#X connect 13 0 68 0;
#X connect 14 0 170 0;
#X connect 15 0 68 0;
#X connect 16 0 171 0;
#X connect 17 0 68 0;
#X connect 18 0 172 0;
#X connect 19 0 21 0;
#X connect 20 0 167 0;
#X connect 21 0 24 0;
#X connect 21 0 25 0;
#X connect 21 0 26 0;
#X connect 21 0 27 0;
#X connect 21 0 28 0;
#X connect 21 0 29 0;
#X connect 21 0 30 0;
#X connect 21 0 66 0;
#X connect 22 0 68 0;
#X connect 24 0 7 0;
#X connect 25 0 20 0;
#X connect 26 0 10 0;
#X connect 27 0 12 0;
#X connect 28 0 14 0;
#X connect 29 0 16 0;
#X connect 30 0 18 0;
#X connect 31 0 35 0;
#X connect 32 0 33 0;
#X connect 33 0 15 1;
#X connect 34 0 33 1;
#X connect 35 0 32 0;
#X connect 36 0 40 0;
#X connect 37 0 38 0;
#X connect 38 0 13 1;
#X connect 39 0 38 1;
#X connect 40 0 37 0;
#X connect 41 0 45 0;
#X connect 42 0 43 0;
#X connect 43 0 11 1;
#X connect 44 0 43 1;
#X connect 45 0 42 0;
#X connect 46 0 50 0;
#X connect 47 0 48 0;
#X connect 48 0 9 1;
#X connect 49 0 48 1;
#X connect 50 0 47 0;
#X connect 51 0 55 0;
#X connect 52 0 53 0;
#X connect 53 0 8 1;
#X connect 54 0 53 1;
#X connect 55 0 52 0;
#X connect 56 0 60 0;
#X connect 57 0 58 0;
#X connect 58 0 6 1;
#X connect 59 0 58 1;
#X connect 60 0 57 0;
#X connect 61 0 65 0;
#X connect 62 0 63 0;
#X connect 63 0 22 1;
#X connect 64 0 63 1;
#X connect 65 0 62 0;
#X connect 66 0 5 0;
#X connect 67 0 68 1;
#X connect 68 0 23 0;
#X connect 68 0 23 1;
#X connect 68 0 173 0;
#X connect 69 0 80 1;
#X connect 70 0 79 1;
#X connect 71 0 72 0;
#X connect 72 0 75 0;
#X connect 73 0 75 0;
#X connect 74 0 81 1;
#X connect 75 0 78 1;
#X connect 76 0 80 0;
#X connect 76 0 79 0;
#X connect 77 0 81 0;
#X connect 78 0 22 0;
#X connect 79 0 71 1;
#X connect 80 0 71 0;
#X connect 81 0 73 0;
#X connect 82 0 92 1;
#X connect 83 0 91 1;
#X connect 84 0 85 0;
#X connect 85 0 88 0;
#X connect 86 0 88 0;
#X connect 87 0 93 1;
#X connect 88 0 166 1;
#X connect 89 0 92 0;
#X connect 89 0 91 0;
#X connect 90 0 93 0;
#X connect 91 0 84 1;
#X connect 92 0 84 0;
#X connect 93 0 86 0;
#X connect 94 0 104 1;
#X connect 95 0 103 1;
#X connect 96 0 97 0;
#X connect 97 0 100 0;
#X connect 98 0 100 0;
#X connect 99 0 105 1;
#X connect 100 0 167 1;
#X connect 101 0 104 0;
#X connect 101 0 103 0;
#X connect 102 0 105 0;
#X connect 103 0 96 1;
#X connect 104 0 96 0;
#X connect 105 0 98 0;
#X connect 106 0 116 1;
#X connect 107 0 115 1;
#X connect 108 0 109 0;
#X connect 109 0 112 0;
#X connect 110 0 112 0;
#X connect 111 0 117 1;
#X connect 112 0 168 1;
#X connect 113 0 116 0;
#X connect 113 0 115 0;
#X connect 114 0 117 0;
#X connect 115 0 108 1;
#X connect 116 0 108 0;
#X connect 117 0 110 0;
#X connect 118 0 128 1;
#X connect 119 0 127 1;
#X connect 120 0 121 0;
#X connect 121 0 124 0;
#X connect 122 0 124 0;
#X connect 123 0 129 1;
#X connect 124 0 169 1;
#X connect 125 0 128 0;
#X connect 125 0 127 0;
#X connect 126 0 129 0;
#X connect 127 0 120 1;
#X connect 128 0 120 0;
#X connect 129 0 122 0;
#X connect 130 0 140 1;
#X connect 131 0 139 1;
#X connect 132 0 133 0;
#X connect 133 0 136 0;
#X connect 134 0 136 0;
#X connect 135 0 141 1;
#X connect 136 0 170 1;
#X connect 137 0 140 0;
#X connect 137 0 139 0;
#X connect 138 0 141 0;
#X connect 139 0 132 1;
#X connect 140 0 132 0;
#X connect 141 0 134 0;
#X connect 142 0 152 1;
#X connect 143 0 151 1;
#X connect 144 0 145 0;
#X connect 145 0 148 0;
#X connect 146 0 148 0;
#X connect 147 0 153 1;
#X connect 148 0 171 1;
#X connect 149 0 152 0;
#X connect 149 0 151 0;
#X connect 150 0 153 0;
#X connect 151 0 144 1;
#X connect 152 0 144 0;
#X connect 153 0 146 0;
#X connect 154 0 164 1;
#X connect 155 0 163 1;
#X connect 156 0 157 0;
#X connect 157 0 160 0;
#X connect 158 0 160 0;
#X connect 159 0 165 1;
#X connect 160 0 172 1;
#X connect 161 0 164 0;
#X connect 161 0 163 0;
#X connect 162 0 165 0;
#X connect 163 0 156 1;
#X connect 164 0 156 0;
#X connect 165 0 158 0;
#X connect 166 0 6 0;
#X connect 167 0 8 0;
#X connect 168 0 9 0;
#X connect 169 0 11 0;
#X connect 170 0 13 0;
#X connect 171 0 15 0;
#X connect 172 0 17 0;
#X connect 174 0 175 0;
#X connect 175 0 173 0;
